<?xml version="1.0" encoding="UTF-8" standalone="no"?>
<!-- Created with Inkscape (http://www.inkscape.org/) -->

<svg
   version="1.1"
   id="svg1"
   width="154.66667"
   height="154.66667"
   viewBox="0 0 154.66667 154.66667"
   sodipodi:docname="png.png"
   xml:space="preserve"
   xmlns:inkscape="http://www.inkscape.org/namespaces/inkscape"
   xmlns:sodipodi="http://sodipodi.sourceforge.net/DTD/sodipodi-0.dtd"
   xmlns="http://www.w3.org/2000/svg"
   xmlns:svg="http://www.w3.org/2000/svg"><defs
     id="defs1" /><sodipodi:namedview
     id="namedview1"
     pagecolor="#ffffff"
     bordercolor="#000000"
     borderopacity="0.25"
     inkscape:showpageshadow="2"
     inkscape:pageopacity="0.0"
     inkscape:pagecheckerboard="0"
     inkscape:deskcolor="#d1d1d1"
     showgrid="false"
     inkscape:zoom="4.3706895"
     inkscape:cx="77.333336"
     inkscape:cy="77.333336"
     inkscape:window-width="1407"
     inkscape:window-height="895"
     inkscape:window-x="63"
     inkscape:window-y="33"
     inkscape:window-maximized="1"
     inkscape:current-layer="g1"><inkscape:page
       x="0"
       y="0"
       width="154.66667"
       height="154.66667"
       id="page2"
       margin="0"
       bleed="0" /></sodipodi:namedview><g
     inkscape:groupmode="layer"
     inkscape:label="Image"
     id="g1"><path
       style="fill:#000000;stroke-width:1.36047"
       d="m 59.154026,154.09202 c 0,-1.87653 1.565363,-2.73743 3.610154,-1.98545 2.900257,1.06656 2.355783,3.0953 -0.830724,3.0953 -1.528686,0 -2.77943,-0.49943 -2.77943,-1.10985 z m 18.384773,-0.47169 c 0.858948,-2.46949 3.85067,-2.87909 3.85067,-0.52717 0,1.15979 -0.990172,2.10871 -2.200384,2.10871 -1.210209,0 -1.952838,-0.7117 -1.650286,-1.58154 z M 89.3023,153.01838 c -1.110285,-1.06404 0.144794,-3.1438 1.897197,-3.1438 0.719233,0 1.307697,0.89898 1.307697,1.99774 0,2.05954 -1.639811,2.64593 -3.204894,1.14606 z m 7.614294,-2.6899 c 0.58569,-2.91458 4.623736,-3.32691 4.623736,-0.47215 0,1.08873 -1.15119,2.19197 -2.558196,2.45166 l -2.55822,0.47214 z m 10.877466,-1.11982 c 0,-1.09875 0.62537,-1.99773 1.38971,-1.99773 0.76435,0 1.38972,0.89898 1.38972,1.99773 0,1.09876 -0.62537,1.99775 -1.38972,1.99775 -0.76434,0 -1.38971,-0.89899 -1.38971,-1.99775 z m 21.59993,-3.23752 c -0.43975,-0.6819 -0.16398,-1.61626 0.61283,-2.07635 0.77682,-0.46009 1.41239,0.0978 1.41239,1.2398 0,2.33939 -0.83391,2.68384 -2.02522,0.83655 z m -66.070818,-2.75569 c 0,-0.7325 0.625372,-1.33181 1.389715,-1.33181 0.764343,0 1.389715,0.59931 1.389715,1.33181 0,0.73251 -0.625372,1.33183 -1.389715,1.33183 -0.764343,0 -1.389715,-0.59932 -1.389715,-1.33183 z m 6.948576,-0.6659 c 0,-1.09876 0.938058,-1.99774 2.084572,-1.99774 1.146515,0 2.084573,0.89898 2.084573,1.99774 0,1.09875 -0.938058,1.99773 -2.084573,1.99773 -1.146514,0 -2.084572,-0.89898 -2.084572,-1.99773 z m 16.676582,0 c 0,-1.09876 0.625372,-1.99774 1.389716,-1.99774 0.764344,0 1.389715,0.89898 1.389715,1.99774 0,1.09875 -0.625371,1.99773 -1.389715,1.99773 -0.764344,0 -1.389716,-0.89898 -1.389716,-1.99773 z m 28.58647,0.81682 c -0.94576,-1.46654 2.5955,-4.45136 3.85228,-3.24695 0.50292,0.48199 0.91442,1.67542 0.91442,2.6521 0,1.984 -3.58251,2.43108 -4.7667,0.59485 z m -82.134,-1.65384 C 21.199903,138.56738 19.826577,126.33686 30.586547,116.64949 l 3.239372,-2.91647 -1.495474,-3.79692 -1.495473,-3.79691 1.457688,-3.10401 1.457689,-3.104004 -8.34552,-9.289643 C 12.211763,75.95596 11.183263,71.583538 16.151482,51.30319 l 2.858057,-11.666625 4.892045,-5.477177 4.892046,-5.477177 14.681407,-6.993893 14.681405,-6.993894 h 12.70382 12.70382 l 5.954623,2.573308 5.954639,2.573308 3.03349,-3.407998 c 5.523206,-6.205073 12.066656,-4.743816 12.066656,2.694678 0,3.34962 1.05718,3.552421 4.70855,0.903248 l 2.62397,-1.903776 2.72594,1.39811 2.72595,1.398112 -0.6268,3.142307 -0.6268,3.142309 3.61516,0.402317 3.61519,0.402319 0.4278,4.937956 c 0.23529,2.715876 -0.27728,6.20053 -1.13903,7.743675 l -1.56686,2.80572 3.3544,4.242741 c 11.16351,14.119963 14.54914,38.692931 8.13704,59.058902 l -3.00176,9.53413 -6.14569,6.55073 c -3.38011,3.60289 -9.86824,8.45218 -14.41803,10.77618 l -8.27238,4.22546 h -9.230686 c -9.935701,0 -16.698007,-2.09211 -23.989225,-7.42172 l -4.57456,-3.34384 -2.907785,1.49136 c -1.599281,0.82026 -5.2729,1.29473 -8.163599,1.05437 l -5.255813,-0.43703 -4.708086,5.85943 c -5.397012,6.71685 -8.538217,8.15337 -14.479586,6.6218 z m 6.750905,-6.15506 c 1.049788,-1.69752 -3.579233,-13.76261 -5.094582,-13.27852 -0.785774,0.251 -2.631698,2.67797 -4.102051,5.39324 l -2.673368,4.93687 1.709173,1.97363 c 1.766139,2.03942 9.06915,2.74004 10.160828,0.97478 z m 64.168055,-4.48837 c 7.7937,-2.07068 19.12467,-9.59826 23.44858,-15.57776 4.0852,-5.64938 4.69753,-8.53645 1.56631,-7.38495 l -2.08459,0.76663 v -1.95711 c 0,-1.0764 1.89025,-4.23658 4.20055,-7.022604 5.61819,-6.77507 6.23895,-9.933329 4.09386,-20.82832 l -1.81742,-9.230682 -1.71154,3.901001 c -4.29237,9.783282 -6.16098,5.745275 -2.09061,-4.517738 l 2.67342,-6.740771 -2.52942,-5.414296 c -2.92447,-6.259913 -5.26272,-8.13056 -6.45161,-5.161413 -0.45856,1.145183 -1.77782,2.082151 -2.93171,2.082151 h -2.09798 l 0.69928,-2.330693 c 0.3846,-1.28188 1.11853,-3.301348 1.63094,-4.487704 l 0.93167,-2.157011 -7.37516,-5.634367 c -4.05633,-3.0989 -10.1136,-7.174872 -13.46059,-9.057714 l -6.085456,-3.423348 -3.989971,1.443314 c -4.108928,1.486335 -5.156107,0.661319 -2.451067,-1.931041 l 1.538915,-1.474807 -3.047896,-1.563229 C 77.52883,18.520115 57.034267,20.880043 44.137875,28.299665 28.802905,37.122261 24.642072,43.110288 21.535662,60.827449 l -1.720236,9.811233 2.621688,4.657564 2.62169,4.657563 0.733079,-7.325032 c 1.582057,-15.808149 5.475177,-13.630465 4.513995,2.524981 l -0.707736,11.895548 6.955327,6.665592 c 3.825429,3.666076 10.43707,8.548712 14.692535,10.850302 4.255466,2.30159 9.864105,6.39574 12.463644,9.09811 2.59954,2.70237 6.335805,6.31737 8.302814,8.03332 l 3.576377,3.11993 8.806599,-4.07436 c 4.843643,-2.2409 10.682736,-5.53729 12.975756,-7.3253 l 4.169136,-3.25094 -3.658806,0.66828 c -4.52732,0.82689 -6.036074,-1.23221 -3.82137,-5.21529 l 1.68151,-3.02413 -2.34568,1.85457 c -1.29013,1.02001 -2.799596,1.41791 -3.354383,0.88423 -0.554789,-0.53369 0.504243,-2.14579 2.353413,-3.58243 3.75149,-2.914625 9.392266,-2.823123 8.705786,0.1412 -0.24175,1.04389 2.70198,-0.91813 6.54161,-4.360047 6.75204,-6.052659 11.51676,-7.774975 13.40578,-4.845822 1.88056,2.916068 -2.78151,9.504969 -11.34712,16.036919 -9.926836,7.56996 -12.009526,10.30878 -3.02296,3.97528 6.35063,-4.47576 8.07542,-5.00021 8.04411,-2.44592 -0.0267,2.17443 -15.254506,12.93081 -18.349706,12.96156 l -2.38838,0.0237 0.74576,-1.86245 0.74576,-1.86245 -6.583765,3.19428 c -3.62107,1.75684 -7.540903,3.19427 -8.710747,3.19427 h -2.126989 l 1.493657,1.43143 c 4.547101,4.35769 15.955774,6.07826 24.77195,3.73592 z m -14.591999,-3.83553 c 0,-0.73251 0.625372,-1.33183 1.389715,-1.33183 0.764344,0 1.389718,0.59932 1.389718,1.33183 0,0.7325 -0.625374,1.33182 -1.389718,1.33182 -0.764343,0 -1.389715,-0.59932 -1.389715,-1.33182 z M 109.68632,123.904 c -0.82259,-2.05437 0.16945,-3.99335 2.04526,-3.99753 0.50957,-0.001 2.89913,-1.34961 5.31016,-2.99661 5.06964,-3.46312 6.03919,-3.66042 6.03919,-1.22896 0,2.02748 -4.78977,6.50075 -9.40121,8.78002 l -3.14747,1.55569 z M 82.779185,113.24941 c 0,-1.09875 0.625372,-1.99773 1.389715,-1.99773 0.764344,0 1.389716,0.89898 1.389716,1.99773 0,1.09876 -0.625372,1.99774 -1.389716,1.99774 -0.764343,0 -1.389715,-0.89898 -1.389715,-1.99774 z m 5.558861,-4.66138 c 0,-0.73251 0.625372,-1.33183 1.389715,-1.33183 0.764343,0 1.389715,0.59932 1.389715,1.33183 0,0.7325 -0.625372,1.33183 -1.389715,1.33183 -0.764343,0 -1.389715,-0.59933 -1.389715,-1.33183 z M 42.477445,90.671072 c 0,-3.836119 2.715918,-10.051351 4.392216,-10.051351 1.619623,0 1.457056,4.131446 -0.359019,9.124025 -1.817547,4.996631 -4.033197,5.506062 -4.033197,0.927326 z m 61.147465,2.167224 c 0,-0.604818 1.59269,-2.533584 3.53928,-4.286151 1.94663,-1.752565 6.09986,-6.367185 9.22942,-10.254712 5.85721,-7.275763 7.69608,-8.149065 5.92992,-2.816185 -1.83725,5.547521 -18.69862,21.199135 -18.69862,17.357048 z m 25.01488,-3.561717 c 0,-1.220839 0.62536,-2.019935 1.3897,-1.775767 1.63472,0.522205 1.54857,2.118219 -0.17371,3.218579 -0.6688,0.427292 -1.21599,-0.221971 -1.21599,-1.442812 z m -73.191671,-2.88562 c 0.509562,-0.488335 1.343392,-0.488335 1.852953,0 0.509563,0.488336 0.09265,0.887884 -0.926476,0.887884 -1.019125,0 -1.43604,-0.399548 -0.926477,-0.887884 z m 68.475401,-0.998566 c 0.46445,-1.159963 1.45506,-2.109023 2.20133,-2.109023 1.82663,0 0.6828,3.026945 -1.39459,3.690564 l -1.65122,0.527483 z M 36.357913,80.827792 c -0.48091,-0.745712 -0.197203,-1.756927 0.630462,-2.247144 2.136664,-1.265522 3.51524,0.467937 1.731559,2.177316 l -1.487643,1.425671 z m 62.706441,-5.923716 c -0.40763,-1.018017 -0.23675,-2.633072 0.37973,-3.589012 1.558916,-2.417321 5.881326,-0.550531 5.309856,2.293259 -0.57776,2.875103 -4.68285,3.809999 -5.689586,1.295753 z M 34.949287,67.480229 c -0.598649,-0.928284 -0.713144,-2.047464 -0.254435,-2.487065 1.24374,-1.191931 2.599833,0.561101 1.928072,2.492433 l -0.585185,1.682422 z M 79.38772,66.057363 C 78.049832,64.640595 76.858506,61.51587 76.740329,59.113528 l -0.214863,-4.367895 2.432001,-0.478853 2.432002,-0.478854 v 4.537071 c 0,5.798373 0.666703,6.342996 5.586337,4.563398 5.102811,-1.845863 6.731458,-0.397043 3.454525,3.073095 -3.192634,3.380859 -7.901906,3.421746 -11.042611,0.09588 z m 44.31323,-0.203754 c -1.19256,-1.849208 1.45079,-4.456329 3.36733,-3.321183 1.59602,0.945307 0.57408,4.769054 -1.27461,4.769054 -0.63744,0 -1.57919,-0.651543 -2.09272,-1.447871 z M 33.277533,53.381102 c -0.989778,-2.471877 0.454281,-4.725161 3.028211,-4.725161 H 38.3083 v 3.329561 3.32956 h -2.128189 c -1.170505,0 -2.476663,-0.870282 -2.902578,-1.93396 z m 31.941478,-4.050341 c -0.481351,-1.202128 -0.20881,-2.824305 0.605648,-3.604833 2.117382,-2.02918 6.129214,-0.174588 5.576125,2.577735 -0.616063,3.065701 -5.069219,3.805591 -6.181773,1.027098 z m -2.861068,74.388409 c 2.136302,-2.04731 -18.381714,-19.12661 -22.977525,-19.12661 -3.296476,0 -0.19695,5.77059 5.529029,10.29375 11.673671,9.22149 15.18709,11.00006 17.448496,8.83286 z m 36.402961,-5.80837 c 0.4724,-0.7325 0.5462,-1.33183 0.16403,-1.33183 -0.38217,0 -1.08134,0.59933 -1.55374,1.33183 -0.47239,0.7325 -0.54621,1.33182 -0.16404,1.33182 0.38217,0 1.08136,-0.59932 1.55375,-1.33182 z M 114.72691,99.94931 c 0.99083,-1.144138 1.49517,-2.373818 1.12078,-2.732625 -1.05423,-1.010299 -7.59845,4.351525 -11.10457,9.098235 l -3.15465,4.27084 5.66849,-4.2781 c 3.11766,-2.35295 6.47915,-5.21421 7.46995,-6.35835 z m 11.11215,-66.276391 c 0.0125,-1.364042 -1.01619,-2.330692 -2.48019,-2.330692 -3.20589,0 -5.83681,-2.526403 -5.83681,-5.604948 v -2.40857 l -2.78423,1.666351 -2.78423,1.66635 -2.4272,-1.458125 c -1.33497,-0.801969 -2.62705,-2.745389 -2.87129,-4.318712 -0.24425,-1.573324 -1.27174,-2.860589 -2.28331,-2.860589 -2.70518,0 -4.00518,4.298687 -1.67751,5.547043 3.59398,1.927513 18.94935,13.279088 19.84827,14.673002 l 0.8858,1.37352 1.1947,-1.806969 c 0.6571,-0.993834 1.2043,-2.855781 1.216,-4.137661 z m 13.91844,96.890211 c 0,-1.09876 0.62538,-1.99774 1.38972,-1.99774 0.76434,0 1.38971,0.89898 1.38971,1.99774 0,1.09875 -0.62537,1.99773 -1.38971,1.99773 -0.76434,0 -1.38972,-0.89898 -1.38972,-1.99773 z M 19.778763,110.36379 c -1.599051,-1.53244 -1.012047,-3.10759 1.158098,-3.10759 1.146514,0 2.084572,0.89899 2.084572,1.99775 0,2.07972 -1.643616,2.64229 -3.24267,1.10984 z M 16.072857,98.599347 c 0,-1.220843 0.625372,-2.019928 1.389716,-1.775761 1.634706,0.522196 1.548565,2.118213 -0.173715,3.218574 -0.6688,0.42729 -1.216001,-0.22197 -1.216001,-1.442813 z M 6.3448516,93.272053 c 0,-1.09876 0.938058,-1.997733 2.084573,-1.997733 1.146514,0 2.0845724,0.898973 2.0845724,1.997733 0,1.098749 -0.9380584,1.997732 -2.0845724,1.997732 -1.146515,0 -2.084573,-0.898983 -2.084573,-1.997732 z M -0.60372405,86.69153 c 0,-1.141985 0.6253718,-2.076336 1.3897145,-2.076336 0.76434375,0 1.38971515,0.56395 1.38971515,1.253224 0,0.689272 -0.6253714,1.623625 -1.38971515,2.076337 -0.7643427,0.45271 -1.3897145,-0.111235 -1.3897145,-1.253225 z M 7.2335466,75.700159 c -1.565075,-1.49988 -0.953194,-3.071382 1.195878,-3.071382 1.146514,0 2.0845724,0.563949 2.0845724,1.253223 0,1.6794 -2.1701644,2.882193 -3.2804504,1.818159 z M 0.09113375,53.983238 c -0.5547118,-0.860154 -0.3831947,-2.163236 0.381148,-2.89574 l 1.38971555,-1.331823 1.0085663,1.563914 c 0.55471,0.860153 0.383193,2.163235 -0.38115,2.895737 L 1.099698,55.547151 Z M 149.48551,51.985502 c 0,-1.098756 0.93806,-1.997737 2.08458,-1.997737 1.14651,0 2.08457,0.898981 2.08457,1.997737 0,1.098754 -0.93806,1.997736 -2.08457,1.997736 -1.14652,0 -2.08458,-0.898982 -2.08458,-1.997736 z m -9.72801,-1.331825 c 0,-1.098755 0.93806,-1.997736 2.08458,-1.997736 1.14651,0 2.08457,0.898981 2.08457,1.997736 0,1.098755 -0.93806,1.997736 -2.08457,1.997736 -1.14652,0 -2.08458,-0.898981 -2.08458,-1.997736 z m -6.94857,-7.325033 c 0,-0.732503 0.93805,-1.331824 2.08457,-1.331824 1.14651,0 2.08457,0.599321 2.08457,1.331824 0,0.732503 -0.93806,1.331824 -2.08457,1.331824 -1.14652,0 -2.08457,-0.599321 -2.08457,-1.331824 z m 20.42026,-4.847147 c -1.11028,-1.064036 0.1448,-3.143798 1.89719,-3.143798 0.71923,0 1.30771,0.898981 1.30771,1.997737 0,2.059546 -1.63983,2.645938 -3.2049,1.146061 z M 4.4541156,33.081784 c -1.565074,-1.499878 -0.953193,-3.071382 1.195878,-3.071382 1.146515,0 2.084573,0.563951 2.084573,1.253224 0,1.679399 -2.170164,2.882192 -3.280451,1.818158 z M 10.832473,20.437916 c 0.858948,-2.469499 3.85067,-2.879084 3.85067,-0.527182 0,1.159798 -0.990173,2.108723 -2.200384,2.108723 -1.210209,0 -1.952839,-0.711694 -1.650286,-1.581541 z M -0.60372405,10.033039 c 0,-0.976672 0.4169138,-1.3762185 0.9264756,-0.8878834 0.5095629,0.4883362 0.5095629,1.2874314 0,1.7757654 -0.5095618,0.488336 -0.9264756,0.08879 -0.9264756,-0.887882 z M 91.117476,7.4803758 c 0,-1.6359307 0.897325,-2.7746329 2.186468,-2.7746329 1.29416,0 2.00311,0.9061316 1.73714,2.2203276 -0.67616,3.3412405 -3.923608,3.8000215 -3.923608,0.5543053 z M 83.533383,7.461419 c -1.027749,-1.5936626 1.586542,-3.1727075 3.437614,-2.0763359 1.554201,0.9205341 0.533887,3.3161339 -1.412381,3.3161339 -0.674123,0 -1.585484,-0.557909 -2.025233,-1.239798 z M 60.118285,3.854068 c -1.296942,-1.2429164 0.270327,-3.14379812 2.592046,-3.14379812 1.101404,0 2.002556,0.89898142 2.002556,1.99773602 0,2.0060321 -2.933676,2.7377983 -4.594602,1.1460621 z"
       id="path3" /></g></svg>
